# xmcd CD database file
#
# Track frame offsets:
#	150
#	13920
#	24922
#	38505
#	51675
#	61470
#	72872
#	87965
#	98762
#	108182
#
# Disc length: 1613 seconds
#
# Revision: 0
# Processed by: cddbd v1.5.1PL0 Copyright (c) Steve Scherf et al.
# Submitted via: CDex 1.50
#
DISCID=7c064b0a
DTITLE=Etta James - The Best of Etta James
DYEAR=2003
DGENRE=Blues
TTITLE0=The Wallflower
TTITLE1=Good Rockin' Daddy
TTITLE2=Do You Remember
TTITLE3=Hey Henry
TTITLE4=Tough Lover
TTITLE5=Hold Me, Squeeze Me
TTITLE6=Crazy Feeling
TTITLE7=Dance with Me Henry
TTITLE8=Come What May
TTITLE9=Market Place
EXTD=YEAR: 2003
EXTT0=
EXTT1=
EXTT2=
EXTT3=
EXTT4=
EXTT5=
EXTT6=
EXTT7=
EXTT8=
EXTT9=
PLAYORDER=
